<svg width="2011" height="1950" viewBox="0 0 2011 1950" fill="none" xmlns="http://www.w3.org/2000/svg">
<g filter="url(#filter0_f_162_213)">
<path fill-rule="evenodd" clip-rule="evenodd" d="M976.461 702.982C1065.9 684.565 1149.44 754.814 1211.85 821.476C1272.05 885.775 1323.27 970.155 1307.78 1056.87C1293.51 1136.79 1210.72 1180.13 1140.52 1220.93C1090.64 1249.93 1034.15 1250.72 976.461 1249.45C920.689 1248.23 865.23 1245.76 819.457 1213.87C763.363 1174.79 699.564 1125.23 700.002 1056.87C700.44 988.63 779.449 955.635 821.457 901.861C875.248 833.006 890.881 720.603 976.461 702.982Z" fill="url(#paint0_radial_162_213)"/>
<path fill-rule="evenodd" clip-rule="evenodd" d="M976.461 702.982C1065.9 684.565 1149.44 754.814 1211.85 821.476C1272.05 885.775 1323.27 970.155 1307.78 1056.87C1293.51 1136.79 1210.72 1180.13 1140.52 1220.93C1090.64 1249.93 1034.15 1250.72 976.461 1249.45C920.689 1248.23 865.23 1245.76 819.457 1213.87C763.363 1174.79 699.564 1125.23 700.002 1056.87C700.44 988.63 779.449 955.635 821.457 901.861C875.248 833.006 890.881 720.603 976.461 702.982Z" fill="url(#paint1_radial_162_213)"/>
</g>
<defs>
<filter id="filter0_f_162_213" x="0" y="0" width="2010.58" height="1949.8" filterUnits="userSpaceOnUse" color-interpolation-filters="sRGB">
<feFlood flood-opacity="0" result="BackgroundImageFix"/>
<feBlend mode="normal" in="SourceGraphic" in2="BackgroundImageFix" result="shape"/>
<feGaussianBlur stdDeviation="350" result="effect1_foregroundBlur_162_213"/>
</filter>
<radialGradient id="paint0_radial_162_213" cx="0" cy="0" r="1" gradientUnits="userSpaceOnUse" gradientTransform="translate(1027.83 1072.29) rotate(139.151) scale(488.171 426.626)">
<stop stop-color="#79AA3E"/>
<stop offset="1" stop-color="#04FB3A"/>
</radialGradient>
<radialGradient id="paint1_radial_162_213" cx="0" cy="0" r="1" gradientUnits="userSpaceOnUse" gradientTransform="translate(1027.83 1072.29) rotate(139.151) scale(488.171 426.626)">
<stop stop-color="#79AA3E"/>
<stop offset="1" stop-color="#04FB3A"/>
</radialGradient>
</defs>
</svg>
